<?xml version="1.0" encoding="iso-8859-1"?>
<!-- Generator: Adobe Illustrator 19.0.0, SVG Export Plug-In . SVG Version: 6.00 Build 0)  -->
<svg version="1.1" id="Layer_1" xmlns="http://www.w3.org/2000/svg" xmlns:xlink="http://www.w3.org/1999/xlink" x="0px" y="0px"
	 viewBox="0 0 512 512" style="enable-background:new 0 0 512 512;" xml:space="preserve">
<path style="fill:#A8967C;" d="M128,67.763c-0.002-12.695,4.894-18.126,15.974-29.205c8.821-8.821,8.818-23.123-0.002-31.943
	c-8.82-8.821-23.126-8.82-31.947,0.002C99.699,18.943,82.818,35.824,82.823,67.763c-0.005,31.944,16.876,48.824,29.204,61.147
	C123.102,139.987,128,145.42,128,158.117c0,12.476,10.114,22.588,22.588,22.588s22.588-10.112,22.588-22.588
	c0-31.946-16.881-48.827-29.21-61.153C132.894,85.891,127.998,80.461,128,67.763z"/>
<path style="fill:#9B8568;" d="M279.496,112.023c-11.073-11.073-15.968-16.503-15.967-29.201
	c-0.001-12.695,4.894-18.126,15.974-29.207c8.822-8.82,8.818-23.121-0.002-31.943c-8.821-8.821-23.126-8.818-31.947,0.002
	c-12.327,12.327-29.208,29.208-29.204,61.147c-0.005,31.944,16.876,48.824,29.204,61.147c11.077,11.079,15.974,16.512,15.974,29.208
	c0,12.476,10.114,22.588,22.588,22.588s22.588-10.112,22.588-22.588C308.706,141.23,291.825,124.35,279.496,112.023z"/>
<path style="fill:#E49429;" d="M391.53,240.94h-30.118H60.235c-12.475,0-22.588,10.115-22.588,22.588v75.294
	C37.646,434.314,115.334,512,210.823,512c71.448,0,132.898-43.51,159.327-105.412h21.379c45.669,0,82.824-37.153,82.824-82.824
	C474.354,278.097,437.199,240.94,391.53,240.94z M391.53,361.411h-9.032c0.967-7.397,1.503-14.929,1.503-22.588v-52.706h7.529
	c20.759,0,37.647,16.889,37.647,37.647C429.177,344.523,412.288,361.411,391.53,361.411z"/>
<path style="fill:#B77220;" d="M391.53,240.94h-30.118H210.823V512c71.448,0,132.898-43.51,159.327-105.412h21.379
	c45.669,0,82.824-37.153,82.824-82.824C474.354,278.097,437.199,240.94,391.53,240.94z M391.53,361.411h-9.032
	c0.967-7.397,1.503-14.929,1.503-22.588v-52.706h7.529c20.759,0,37.647,16.889,37.647,37.647
	C429.177,344.523,412.288,361.411,391.53,361.411z"/>
<path style="fill:#7BD9BF;" d="M361.412,466.823H60.235c-12.475,0-22.588,10.115-22.588,22.588C37.646,501.888,47.76,512,60.235,512
	h301.177C373.887,512,384,501.888,384,489.412C384,476.938,373.887,466.823,361.412,466.823z"/>
<path style="fill:#72C8B0;" d="M361.412,466.823H210.823V512h150.589C373.887,512,384,501.888,384,489.412
	C384,476.938,373.887,466.823,361.412,466.823z"/>
<g>
</g>
<g>
</g>
<g>
</g>
<g>
</g>
<g>
</g>
<g>
</g>
<g>
</g>
<g>
</g>
<g>
</g>
<g>
</g>
<g>
</g>
<g>
</g>
<g>
</g>
<g>
</g>
<g>
</g>
</svg>
